<svg width="399" height="399" viewBox="0 0 399 399" fill="none" xmlns="http://www.w3.org/2000/svg">
<path d="M350 325H50C33 325 20 312.236 20 295.544V29.4562C20 12.7644 33 0 50 0H350C367 0 380 12.7644 380 29.4562V295.544C380 311.254 367 325 350 325Z" fill="#FF8F00"/>
<path d="M350 399H50C33 399 20 386 20 369V119C20 102 33 89 50 89H350C367 89 380 102 380 119V369C380 386 367 399 350 399Z" fill="#DD2C00"/>
<path d="M110 129C104.696 129 99.6086 131.107 95.8579 134.858C92.1071 138.609 90 143.696 90 149C90 154.304 92.1071 159.391 95.8579 163.142C99.6086 166.893 104.696 169 110 169C115.304 169 120.391 166.893 124.142 163.142C127.893 159.391 130 154.304 130 149C130 143.696 127.893 138.609 124.142 134.858C120.391 131.107 115.304 129 110 129ZM290 129C284.696 129 279.609 131.107 275.858 134.858C272.107 138.609 270 143.696 270 149C270 154.304 272.107 159.391 275.858 163.142C279.609 166.893 284.696 169 290 169C295.304 169 300.391 166.893 304.142 163.142C307.893 159.391 310 154.304 310 149C310 143.696 307.893 138.609 304.142 134.858C300.391 131.107 295.304 129 290 129Z" fill="#B71C1C"/>
<path d="M200 249C145 249 100 204 100 149C100 143 104 139 110 139C116 139 120 143 120 149C120 193 156 229 200 229C244 229 280 193 280 149C280 143 284 139 290 139C296 139 300 143 300 149C300 204 255 249 200 249Z" fill="white"/>
<path d="M264.642 314.813C269.303 314.822 273.131 318.407 273.522 322.972V323.007H254.434C255.511 318.294 259.66 314.822 264.633 314.822L264.642 314.813ZM212.683 314.648C212.779 314.648 212.891 314.639 213.013 314.639C219.046 314.639 223.941 319.535 223.941 325.568C223.941 331.6 219.046 336.496 213.013 336.496C207.918 336.496 203.647 333.015 202.432 328.302L202.415 328.224C202.189 327.39 202.059 326.436 202.059 325.446C202.059 322.165 203.473 319.223 205.73 317.183L205.739 317.174C207.553 315.603 209.931 314.648 212.535 314.648C212.588 314.648 212.64 314.648 212.683 314.648ZM123.382 310.638V340.358H128.695V310.638H123.382ZM164.873 310.473L176.392 325.411L164.873 340.358H171.175L179.621 329.404L188.058 340.358H194.359L182.841 325.411L194.359 310.464H188.058L179.621 321.419L171.175 310.464L164.873 310.473ZM264.659 309.605C256.057 309.692 249.113 316.697 249.113 325.307C249.113 327.798 249.695 330.159 250.728 332.251L250.684 332.156C253.323 337.564 258.783 341.218 265.093 341.218C265.414 341.218 265.736 341.209 266.048 341.192H266.005C270.414 340.888 274.294 338.813 276.959 335.68L276.976 335.654L273.036 332.494C271.1 334.786 268.218 336.235 265.007 336.235C263.574 336.235 262.212 335.949 260.97 335.437L261.04 335.463C257.811 334.135 255.398 331.409 254.53 328.05L254.512 327.972H278.799L278.817 323.337C278.652 315.707 272.428 309.579 264.772 309.579C264.729 309.579 264.685 309.579 264.642 309.579H264.651L264.659 309.605ZM212.553 309.605C205.123 309.605 198.89 314.718 197.172 321.61L197.146 321.722C196.859 322.781 196.703 323.988 196.703 325.246C196.703 325.255 196.703 325.264 196.703 325.273V356H202.033V336.331C204.81 338.97 208.569 340.602 212.709 340.602C221.268 340.602 228.212 333.657 228.212 325.099C228.212 316.54 221.268 309.596 212.709 309.596C212.648 309.596 212.588 309.596 212.527 309.596L212.553 309.605ZM319.292 309.588C319.283 309.588 319.266 309.588 319.248 309.588C318.658 309.588 318.085 309.631 317.521 309.7L317.59 309.692C314.309 309.891 311.419 311.436 309.44 313.763L309.422 313.78C308.468 315.021 307.886 316.601 307.886 318.32C307.886 318.502 307.895 318.676 307.903 318.849V318.823C307.903 318.875 307.903 318.927 307.903 318.988C307.903 321.097 308.884 322.972 310.421 324.196L310.438 324.205C312.46 325.585 314.865 326.566 317.46 327L317.564 327.017C319.778 327.243 321.792 327.963 323.536 329.066L323.484 329.031C324.378 329.647 324.96 330.672 324.96 331.835C324.96 331.878 324.96 331.921 324.96 331.974C324.968 334.682 322.564 336.001 320.403 336.409C319.821 336.531 319.161 336.6 318.476 336.6C315.299 336.6 312.487 335.064 310.724 332.703L310.707 332.677L306.68 335.801C309.561 339.126 313.789 341.227 318.502 341.227C318.866 341.27 319.292 341.287 319.717 341.287C323.979 341.287 327.694 338.952 329.647 335.489L329.673 335.428C330.107 334.335 330.359 333.067 330.359 331.739C330.359 331.583 330.359 331.435 330.35 331.279V331.305C330.35 331.288 330.35 331.262 330.35 331.236C330.35 328.857 329.222 326.748 327.468 325.403L327.451 325.385C325.481 324.092 323.154 323.172 320.654 322.773L320.55 322.755C315.811 321.913 313.415 320.629 312.999 319.058C312.973 318.893 312.964 318.71 312.964 318.511C312.964 316.566 314.353 314.952 316.202 314.596H316.228C317.009 314.327 317.903 314.171 318.832 314.171C321.575 314.171 324.005 315.516 325.507 317.573L325.524 317.599L329.508 314.917C327.217 311.697 323.51 309.605 319.318 309.562L319.292 309.588ZM293.399 309.588C293.39 309.588 293.373 309.588 293.356 309.588C292.765 309.588 292.184 309.631 291.611 309.7L291.68 309.692C288.399 309.9 285.509 311.436 283.53 313.763L283.512 313.78C282.558 315.021 281.976 316.601 281.976 318.32C281.976 318.502 281.985 318.676 281.993 318.849V318.823C281.993 318.867 281.993 318.91 281.993 318.953C281.993 321.071 282.974 322.964 284.511 324.188L284.528 324.196C286.55 325.568 288.955 326.557 291.55 326.991L291.654 327.009C293.876 327.234 295.89 327.955 297.635 329.057L297.583 329.022C298.477 329.656 299.058 330.68 299.058 331.852C299.058 331.887 299.058 331.921 299.058 331.956C299.058 334.664 296.663 335.984 294.501 336.392C293.92 336.513 293.26 336.583 292.574 336.583C289.398 336.583 286.585 335.046 284.823 332.685L284.806 332.659L280.778 335.784C283.66 339.109 287.887 341.209 292.6 341.209C292.965 341.253 293.39 341.27 293.816 341.27C298.069 341.27 301.784 338.935 303.737 335.472L303.763 335.411C304.197 334.317 304.457 333.05 304.457 331.722C304.457 331.566 304.457 331.418 304.449 331.262V331.279C304.449 331.262 304.449 331.236 304.449 331.21C304.449 328.831 303.32 326.722 301.567 325.377L301.55 325.359C299.579 324.066 297.253 323.146 294.753 322.747L294.649 322.729C289.91 321.887 287.514 320.603 287.089 319.032C287.063 318.867 287.054 318.684 287.054 318.493C287.054 316.549 288.443 314.926 290.283 314.579H290.309C291.09 314.31 291.984 314.153 292.913 314.153C295.656 314.153 298.086 315.499 299.588 317.556L299.605 317.582L303.589 314.9C301.298 311.68 297.6 309.596 293.408 309.544H293.399V309.588ZM248.054 309.51C244.027 309.518 240.355 311.02 237.56 313.494L237.577 313.476V310.395H232.248V340.367H237.56C237.586 335.194 237.56 330.012 237.586 324.821C237.89 319.266 242.456 314.882 248.054 314.865V309.51ZM88.7229 305.152L96.2919 324.891H81.1539L88.7229 305.152ZM136.298 298.729V340.358H162.469V334.916H141.732V322.009H158.841V316.835H141.732V304.189H160.967V298.746L136.298 298.729ZM110.536 298.729V340.358H115.866V298.729H110.536ZM85.98 298.703L70 340.358H75.208L79.062 330.359H98.3925L102.229 340.358H107.446L91.4832 298.703H85.98ZM126.039 293L125.874 293.069L125.804 293.234C125.804 293.243 125.804 293.243 125.804 293.252C125.804 297.531 122.341 300.994 118.07 301.012L117.905 301.081L117.845 301.246C117.845 301.368 117.949 301.472 118.07 301.472C122.341 301.489 125.804 304.961 125.804 309.232C125.804 309.24 125.804 309.249 125.804 309.258C125.804 309.388 125.908 309.483 126.039 309.483C126.16 309.475 126.273 309.379 126.273 309.258C126.282 304.987 129.736 301.524 134.007 301.506C134.137 301.506 134.25 301.402 134.25 301.272C134.25 301.142 134.146 301.038 134.016 301.038C129.736 301.02 126.273 297.548 126.273 293.269C126.273 293.26 126.273 293.252 126.273 293.243V293.226L126.203 293.061L126.039 293Z" fill="white"/>
<path d="M92.8289 66V26.1875H106.2C108.369 26.1875 110.338 26.4062 112.106 26.8438C113.893 27.2812 115.415 27.9466 116.673 28.8398C117.93 29.7331 118.897 30.8633 119.571 32.2305C120.264 33.5977 120.61 35.2109 120.61 37.0703C120.592 38.2734 120.373 39.4128 119.954 40.4883C119.553 41.5456 118.951 42.4753 118.149 43.2773C117.712 43.7148 117.21 44.1159 116.645 44.4805C116.098 44.8451 115.488 45.1549 114.813 45.4102V45.4375C116.126 45.8021 117.165 46.2669 117.93 46.832C118.714 47.3971 119.371 48.0534 119.899 48.8008C120.446 49.6029 120.847 50.4779 121.102 51.4258C121.376 52.3555 121.512 53.3216 121.512 54.3242C121.512 56.2383 121.184 57.9245 120.528 59.3828C119.872 60.8411 118.933 62.0625 117.712 63.0469C116.49 64.0312 115.005 64.7695 113.255 65.2617C111.505 65.7539 109.536 66 107.348 66H92.8289ZM100.54 48.4453V59.793H107.376C108.378 59.793 109.272 59.6654 110.055 59.4102C110.858 59.1549 111.523 58.8086 112.052 58.3711C112.635 57.8789 113.072 57.2865 113.364 56.5938C113.674 55.901 113.829 55.1263 113.829 54.2695C113.829 53.3763 113.71 52.5742 113.473 51.8633C113.255 51.1523 112.899 50.5508 112.407 50.0586C111.915 49.5482 111.277 49.1562 110.493 48.8828C109.709 48.6094 108.779 48.4635 107.704 48.4453H100.54ZM100.54 42.8945H106.255C107.421 42.8763 108.451 42.7396 109.345 42.4844C110.238 42.2109 110.958 41.8099 111.505 41.2812C111.96 40.862 112.307 40.3516 112.544 39.75C112.799 39.1484 112.927 38.4648 112.927 37.6992C112.927 36.8971 112.817 36.1953 112.598 35.5938C112.398 34.9922 112.088 34.4909 111.669 34.0898C111.122 33.5247 110.384 33.1146 109.454 32.8594C108.542 32.6042 107.467 32.4674 106.227 32.4492H100.54V42.8945ZM154.936 48.5547H138.585V59.793H157.698V66H130.874V26.1875H157.616V32.4492H138.585V42.4844H154.936V48.5547ZM197.247 32.4492H184.97V66H177.259V32.4492H165.145V26.1875H197.247V32.4492ZM234.8 32.4492H222.522V66H214.812V32.4492H202.698V26.1875H234.8V32.4492ZM267.595 48.5547H251.243V59.793H270.357V66H243.532V26.1875H270.275V32.4492H251.243V42.4844H267.595V48.5547ZM294.155 51.125H288.331V66H280.648V26.1875H293.991C296.197 26.1875 298.193 26.4518 299.98 26.9805C301.766 27.4909 303.297 28.2474 304.573 29.25C305.831 30.2526 306.797 31.5013 307.472 32.9961C308.165 34.4909 308.511 36.2227 308.511 38.1914C308.511 39.6133 308.338 40.8984 307.991 42.0469C307.663 43.1771 307.189 44.1888 306.57 45.082C305.932 45.9935 305.166 46.7865 304.273 47.4609C303.398 48.1354 302.413 48.7188 301.32 49.2109L309.878 65.6445V66H301.648L294.155 51.125ZM288.331 44.8906H294.019C295.204 44.8906 296.243 44.7266 297.136 44.3984C298.047 44.0521 298.786 43.5599 299.351 42.9219C299.825 42.4115 300.18 41.8008 300.417 41.0898C300.672 40.3789 300.8 39.5859 300.8 38.7109C300.8 37.6536 300.636 36.724 300.308 35.9219C299.998 35.1016 299.524 34.4271 298.886 33.8984C298.321 33.4245 297.628 33.0599 296.808 32.8047C295.988 32.5495 295.049 32.4219 293.991 32.4219H288.331V44.8906Z" fill="white"/>
<path d="M57.4034 59.0153C57.1169 57.5838 54.4761 54.3959 53.5763 54.3959C52.6078 54.3959 52.9651 53.8102 54.3498 53.1277C55.2019 52.7077 56.041 51.7563 56.706 50.4572L57.7388 48.4389L58.7629 50.456C59.4262 51.7627 60.254 52.7036 61.1129 53.1265C62.4816 53.8009 62.8608 54.3959 61.9218 54.3959C61.0355 54.3959 58.8205 56.9725 58.2229 58.6986L57.6635 60.315L57.4034 59.0153ZM31.9066 55.1985C31.4609 52.9696 29.2661 50.2904 27.0411 49.2596L25 48.314L26.3231 48.0224C28.2575 47.5965 31.1189 44.5603 31.7269 42.2876C32.0005 41.2633 32.3329 40.4262 32.4651 40.4262C32.5976 40.4262 32.9295 41.2633 33.2035 42.2876C33.8114 44.5603 36.6729 47.5971 38.6072 48.0224L39.9303 48.314L37.8657 49.2707C35.5389 50.3487 33.461 52.8442 33.0452 55.0609C32.7215 56.7875 32.2362 56.8441 31.9066 55.1985ZM58.7977 36.666C58.4979 35.9894 57.8246 35.2404 57.3012 35.0018L56.3496 34.5701L57.7601 33.2395C58.5359 32.508 59.1714 31.5613 59.1722 31.136C59.1735 30.5585 59.3711 30.6869 59.9587 31.6494C60.3904 32.357 61.1704 33.2355 61.692 33.6006L62.6403 34.265L61.692 34.9289C61.1705 35.2964 60.4284 36.1119 60.0431 36.7454L59.3425 37.8975L58.7977 36.666ZM78.3889 32.3791C78.2664 32.175 78.0296 31.3577 77.8621 30.5667C77.4194 28.4749 75.7901 25.4328 74.1258 23.5906C72.6261 21.931 69.0938 19.9051 67.6152 19.8567C67.1509 19.8567 67.5434 19.5884 68.487 19.2909C70.8201 18.5611 72.8248 17.2679 74.3959 15.4782C75.9112 13.7527 78.0691 9.41503 78.0696 8.09437C78.0699 6.47503 78.7826 6.71012 79.056 8.42103C79.4066 10.6138 81.029 13.7667 82.8357 15.7664C84.3353 17.4265 87.8676 19.4525 89.3463 19.5003C89.8107 19.5003 89.4181 19.7686 88.4744 20.0661C83.8695 21.5058 80.5178 25.3045 79.1559 30.6256C78.856 31.7964 78.5112 32.585 78.3889 32.3791ZM44.2428 24.5327C43.8327 21.9684 41.6616 19.0762 39.1787 17.7865C37.1033 16.7085 37.0832 16.6805 38.2206 16.453C40.6597 15.963 44.2855 11.3552 44.4084 8.58612C44.4259 8.13112 44.8255 8.86028 45.2908 10.1944C46.3001 13.093 48.9153 15.9402 51.0006 16.411L52.3916 16.726L50.9536 17.3128C48.2094 18.4328 46.0357 21.0846 44.992 24.5858L44.5096 26.2034L44.2428 24.5327Z" fill="white" fill-opacity="0.7"/>
<path d="M342.138 59.0153C342.425 57.5838 345.066 54.3959 345.965 54.3959C346.934 54.3959 346.577 53.8102 345.192 53.1277C344.34 52.7077 343.501 51.7563 342.836 50.4572L341.803 48.4389L340.779 50.456C340.115 51.7627 339.288 52.7036 338.429 53.1265C337.06 53.8009 336.681 54.3959 337.62 54.3959C338.506 54.3959 340.721 56.9725 341.319 58.6986L341.878 60.315L342.138 59.0153ZM367.635 55.1985C368.081 52.9696 370.276 50.2904 372.501 49.2596L374.542 48.314L373.219 48.0224C371.284 47.5965 368.423 44.5603 367.815 42.2876C367.541 41.2633 367.209 40.4262 367.076 40.4262C366.944 40.4262 366.612 41.2633 366.338 42.2876C365.73 44.5603 362.869 47.5971 360.934 48.0224L359.611 48.314L361.676 49.2707C364.003 50.3487 366.081 52.8442 366.496 55.0609C366.82 56.7875 367.305 56.8441 367.635 55.1985ZM340.744 36.666C341.044 35.9894 341.717 35.2404 342.24 35.0018L343.192 34.5701L341.782 33.2395C341.006 32.508 340.37 31.5613 340.369 31.136C340.368 30.5585 340.171 30.6869 339.583 31.6494C339.151 32.357 338.371 33.2355 337.85 33.6006L336.901 34.265L337.85 34.9289C338.371 35.2964 339.113 36.1119 339.499 36.7454L340.199 37.8975L340.744 36.666ZM321.153 32.3791C321.275 32.175 321.512 31.3577 321.679 30.5667C322.122 28.4749 323.752 25.4328 325.416 23.5906C326.915 21.931 330.448 19.9051 331.926 19.8567C332.391 19.8567 331.998 19.5884 331.055 19.2909C328.721 18.5611 326.717 17.2679 325.146 15.4782C323.63 13.7527 321.473 9.41503 321.472 8.09437C321.472 6.47503 320.759 6.71012 320.486 8.42103C320.135 10.6138 318.513 13.7667 316.706 15.7664C315.206 17.4265 311.674 19.4525 310.195 19.5003C309.731 19.5003 310.124 19.7686 311.067 20.0661C315.672 21.5058 319.024 25.3045 320.386 30.6256C320.686 31.7964 321.03 32.585 321.153 32.3791ZM355.299 24.5327C355.709 21.9684 357.88 19.0762 360.363 17.7865C362.438 16.7085 362.458 16.6805 361.321 16.453C358.882 15.963 355.256 11.3552 355.133 8.58612C355.116 8.13112 354.716 8.86028 354.251 10.1944C353.241 13.093 350.626 15.9402 348.541 16.411L347.15 16.726L348.588 17.3128C351.332 18.4328 353.506 21.0846 354.55 24.5858L355.032 26.2034L355.299 24.5327Z" fill="white" fill-opacity="0.7"/>
</svg>
